<svg xmlns="http://www.w3.org/2000/svg" width="137.55mm" height="26.18mm" viewBox="0 0 389.89 74.21">
  <defs>
    <style>
      .cls-1 {
        fill: #fff;
      }
    </style>
  </defs>
  <g id="레이어_2" data-name="레이어 2">
    <g id="레이어_1-2" data-name="레이어 1">
      <path class="cls-1" d="M37.89,21.05H53.68V47.37c0,16.1-11.15,26.84-26.84,26.84C10.74,74.21,0,63,0,47.37V21.05H15.79V47.37c0,7.05,3.58,12.21,11.05,12.21,7.69,0,11.05-5,11.05-12.21Zm56,1.79V37.47H79.16v9.9c0,8.1,5.37,12.21,13.16,12.21a18.3,18.3,0,0,0,2.52-.21L97,59.05V73.68c-1,.11-1.69.32-2.21.42a22.26,22.26,0,0,1-3.06.11c-15.89,0-28.31-10.84-28.31-26.84V8.42H79.16V22.84ZM142,47.37c-.42-7.69-3.9-12.21-11.9-12.21a15.11,15.11,0,0,0-5.68,1c-4.84,2.21-6.63,6.31-6.63,11.36a12.92,12.92,0,0,0,.74,4.64c1.57,5.47,6.31,7.47,11.57,7.47,8,0,11.9-4.32,11.9-12.21m20,26.31H146.21a54.63,54.63,0,0,1-2.63-8c-3.58,5.9-9.05,8.53-15.79,8.53-15.05,0-25.79-12.63-25.79-27,0-16.63,12.42-26.63,28.1-26.63,16.74,0,27.27,10.73,27.69,26.84.1,1.37.1,3,.1,4.84A53.35,53.35,0,0,0,162,73.68ZM275.68,45.26V73.68H259.89V45.26c0-6-2.84-10.1-9.16-10.1s-9.26,4.21-9.26,10.1V73.68H225.68V45.26c0-6-3.05-10.1-9.37-10.1s-9.05,4.21-9.05,10.1V73.68H191.47V45.26c0-15.26,10.42-24.73,25.05-24.73,7.48,0,13.27,3.47,17.06,9.89,3.79-6.42,9.58-9.89,17-9.89C265.79,20.53,275.68,30.53,275.68,45.26Zm46.63,2.11c-.42-7.69-3.89-12.21-11.89-12.21a15.16,15.16,0,0,0-5.69,1c-4.84,2.21-6.63,6.31-6.63,11.36a12.92,12.92,0,0,0,.74,4.64c1.58,5.47,6.32,7.47,11.58,7.47,8,0,11.89-4.32,11.89-12.21m20,26.31H326.52a54.63,54.63,0,0,1-2.63-8c-3.58,5.9-9.05,8.53-15.79,8.53-15.05,0-25.79-12.63-25.79-27,0-16.63,12.42-26.63,28.11-26.63,16.74,0,27.26,10.73,27.68,26.84.11,1.37.11,3,.11,4.84A53.51,53.51,0,0,0,342.31,73.68ZM348.1,0h15.79V73.68H348.1Zm26,0h15.79V73.68H374.1Z"/>
    </g>
  </g>
</svg>
