<svg xmlns="http://www.w3.org/2000/svg" viewBox="0 0 562.5 228.49"><defs><style>.cls-1{fill:#d52526;}.cls-2{fill:#3eb044;}.cls-3{fill:#f2b719;}.cls-4{fill:#3f6dad;}.cls-5{fill:#fff;}</style></defs><g id="레이어_2" data-name="레이어 2"><g id="레이어_1-2" data-name="레이어 1"><path class="cls-1" d="M228.94,19.41a142.37,142.37,0,0,0-2.18,24.69c0,48.34,22.37,87.53,51.43,87.53s52.62-39.19,52.62-87.53A144,144,0,0,0,330,29h24.33c.33,3.82.51,7.69.51,11.62,0,56.39-35.31,102.09-78.86,102.09S198.34,97,198.34,40.59V19.41Z"/><path class="cls-2" d="M288.16,0h29s20.5,99.05-32.53,119.83c0,0,42.1-41.38,3.55-119.83"/><path class="cls-3" d="M241.42,41h20.23s-23.23,60.68,15.85,81.73c0,0-43.46,1.37-36.08-81.73"/><path class="cls-4" d="M164.07,82.28h26s9.56,63.14,76,64.23c0,0-83.91,15.86-101.95-64.23"/><path class="cls-5" d="M54.67,151.8H77.45v38c0,23.23-16.1,38.72-38.73,38.72C15.49,228.49,0,212.24,0,189.77v-38H22.78v38c0,10.17,5.16,17.61,15.94,17.61,11.09,0,16-7.28,16-17.61Zm80.79,2.58v21.11H114.2v14.28c0,11.69,7.74,17.61,19,17.61a25.63,25.63,0,0,0,3.65-.3l3-.45v21.1a32.34,32.34,0,0,0-3.19.61,33.82,33.82,0,0,1-4.41.15c-22.93,0-40.85-15.64-40.85-38.72V133.58H114.2v20.8Zm69.4,35.39c-.61-11.09-5.62-17.62-17.16-17.62a22.09,22.09,0,0,0-8.2,1.37c-7,3.19-9.57,9.11-9.57,16.4A18.66,18.66,0,0,0,171,196.6c2.27,7.9,9.11,10.78,16.7,10.78,11.54,0,17.16-6.22,17.16-17.61m28.86,38H210.94a78.29,78.29,0,0,1-3.8-11.54c-5.16,8.51-13.06,12.3-22.78,12.3-21.72,0-37.21-18.22-37.21-39,0-24,17.92-38.43,40.55-38.43,24.15,0,39.33,15.49,39.94,38.73.15,2,.15,4.25.15,7C227.79,207.38,229.46,218,233.72,227.73Zm164-41v41H375v-41c0-8.65-4.1-14.58-13.22-14.58-9,0-13.36,6.08-13.36,14.58v41H325.59v-41c0-8.65-4.4-14.58-13.51-14.58-9,0-13.06,6.08-13.06,14.58v41H276.24v-41c0-22,15-35.69,36.14-35.69,10.78,0,19.13,5,24.6,14.28,5.47-9.26,13.82-14.28,24.6-14.28C383.45,151,397.73,165.47,397.73,186.73Zm67.27,3c-.61-11.09-5.62-17.62-17.16-17.62a22.09,22.09,0,0,0-8.2,1.37c-7,3.19-9.57,9.11-9.57,16.4a18.66,18.66,0,0,0,1.07,6.68c2.27,7.9,9.11,10.78,16.7,10.78,11.54,0,17.16-6.22,17.16-17.61m28.85,38H471.08a78.29,78.29,0,0,1-3.8-11.54c-5.16,8.51-13.06,12.3-22.78,12.3-21.72,0-37.21-18.22-37.21-39,0-24,17.92-38.43,40.55-38.43,24.15,0,39.33,15.49,39.94,38.73.15,2,.15,4.25.15,7C487.93,207.38,489.6,218,493.85,227.73Zm8.36-106.3H525v106.3H502.21Zm37.51,0H562.5v106.3H539.72Z"/></g></g></svg>